<svg xmlns="http://www.w3.org/2000/svg" fill="none" viewBox="0 0 14 14" id="Make-Design-Spark--Streamline-Core">
  <desc>
    Make Design Spark Streamline Icon: https://streamlinehq.com
  </desc>
  <g id="make-design-spark--make-design-spark-artificial-intelligence-auto-generated">
    <g id="Vector 6269">
      <path id="Vector 6269_2" stroke="#000000" stroke-linecap="round" stroke-linejoin="round" d="m9.69229 8.60443 0.51011 -1.23885c0.0288 -0.06993 0.097 -0.11558 0.1726 -0.11558s0.1438 0.04565 0.1726 0.11558l0.5101 1.23885c0.2031 0.49317 0.5947 0.88479 1.0879 1.08786l1.2388 0.51011c0.07 0.0288 0.1156 0.097 0.1156 0.1726s-0.0456 0.1438 -0.1156 0.1726l-1.2388 0.5101c-0.4932 0.2031 -0.8848 0.5947 -1.0879 1.0879l-0.5101 1.2388c-0.0288 0.07 -0.097 0.1156 -0.1726 0.1156s-0.1438 -0.0456 -0.1726 -0.1156l-0.51011 -1.2388c-0.20307 -0.4932 -0.59469 -0.8848 -1.08786 -1.0879l-1.23885 -0.5101c-0.06993 -0.0288 -0.11558 -0.097 -0.11558 -0.1726s0.04565 -0.1438 0.11558 -0.1726l1.23885 -0.51011c0.49317 -0.20307 0.88479 -0.59469 1.08786 -1.08786" stroke-width="1"></path>
    </g>
    <path id="Rectangle 2166" stroke="#000000" stroke-linecap="round" stroke-linejoin="round" d="M5.5 11.5h-5V0.5h11v5" stroke-width="1"></path>
    <path id="Vector 4812" stroke="#000000" stroke-linecap="round" stroke-linejoin="round" d="M0.500061 3.5H11.5001" stroke-width="1"></path>
    <path id="Vector 4813" stroke="#000000" stroke-linecap="round" stroke-linejoin="round" d="M4 3.5v8" stroke-width="1"></path>
  </g>
</svg>