<svg width="200" height="200" viewBox="0 0 200 200" fill="none" xmlns="http://www.w3.org/2000/svg">
<rect width="200" height="200" fill="url(#paint0_radial_43_680)"/>
<path d="M199.998 40.2007C200 40.2007 200.535 40.2007 189.999 40.2007C181.19 40.2008 174.045 47.3195 174 56.1177V116.001C174 138.093 156.091 156.001 134 156.001H65C42.9087 156.001 25.0001 138.093 25 116.001V0.00146484H173.999L199.999 0.000488281L199.998 40.2007Z" fill="black"/>
<path d="M73.213 99.225C74.9143 97.4856 77.7034 97.4546 79.4428 99.1559C85.3451 104.929 102.807 115.112 123.777 107.954C126.079 107.168 128.583 108.397 129.369 110.7C130.155 113.003 128.926 115.506 126.623 116.292C101.575 124.843 80.764 112.772 73.2821 105.455C71.5427 103.754 71.5118 100.964 73.213 99.225Z" fill="#D9D9D9"/>
<circle cx="134" cy="80" r="7" fill="#D9D9D9"/>
<circle cx="87" cy="69" r="7" fill="#D9D9D9"/>
<path d="M120.254 110.791L128.555 109.378L119.289 92.5234L110.988 93.9366L120.254 110.791Z" fill="#6903F9"/>
<path d="M121.375 173.284L116.092 165.029L100.791 176.516L106.074 184.771L121.375 173.284Z" fill="#6903F9"/>
<path d="M132.388 31.5462L124.609 21.4575L100.017 38.9286L107.796 49.0172L132.388 31.5462Z" fill="#FF15E5"/>
<path d="M99.0376 31.7896L106.811 33.2588L105.374 10.3447L97.6008 8.87549L99.0376 31.7896Z" fill="#FF15E5"/>
<path d="M16.7246 91.8281L11.5137 102.521L0 96.0703V82.46L16.7246 91.8281Z" fill="white"/>
<path d="M0.00488281 40.2007C0.00322856 40.2007 -0.532527 40.2007 10.0039 40.2007C18.8404 40.2008 26.0039 47.3642 26.0039 56.2007V0.00146484L0.00390625 0.000488281L0.00488281 40.2007Z" fill="black"/>
<path d="M200 172.767L196.427 173.536L190.895 163.597L200 161.64V172.767Z" fill="#6903F9"/>
<path d="M199.436 97.4792L200 100.679V107.458L185.149 107.2L183.387 97.2L199.436 97.4792Z" fill="white"/>
<path d="M200.001 17.9626V32.9392L182.895 23.4363L190.14 12.4841L200.001 17.9626Z" fill="#6903F9"/>
<defs>
<radialGradient id="paint0_radial_43_680" cx="0" cy="0" r="1" gradientTransform="matrix(130.047 142.714 -133.333 139.196 35.6807 50.7538)" gradientUnits="userSpaceOnUse">
<stop stop-color="#298BFF"/>
<stop offset="1" stop-color="#86AFDF"/>
</radialGradient>
</defs>
</svg>
